<?xml version="1.0" ?><svg data-name="Layer 1" id="Layer_1" viewBox="0 0 32 32" xmlns="http://www.w3.org/2000/svg"><defs><style>.cls-1{fill:#515151;}</style></defs><title/><path class="cls-1" d="M5,11h6V5H5ZM7,7H9V9H7Z"/><path class="cls-1" d="M13,11h6V5H13Zm2-4h2V9H15Z"/><path class="cls-1" d="M21,5v6h6V5Zm4,4H23V7h2Z"/><path class="cls-1" d="M5,19h6V13H5Zm2-4H9v2H7Z"/><path class="cls-1" d="M13,19h6V13H13Zm2-4h2v2H15Z"/><path class="cls-1" d="M21,19h6V13H21Zm2-4h2v2H23Z"/><path class="cls-1" d="M5,27h6V21H5Zm2-4H9v2H7Z"/><path class="cls-1" d="M13,27h6V21H13Zm2-4h2v2H15Z"/><path class="cls-1" d="M21,27h6V21H21Zm2-4h2v2H23Z"/></svg>